<svg width="24" height="24" viewBox="0 0 24 24" fill="none" xmlns="http://www.w3.org/2000/svg">
<path d="M11.6002 14.4001C14.2474 14.4001 16.4002 12.2473 16.4002 9.60008C16.4002 6.95286 14.2474 4.80004 11.6002 4.80004C8.95297 4.80004 6.80016 6.95286 6.80016 9.60008C6.80016 12.2473 8.95297 14.4001 11.6002 14.4001ZM11.6002 7.20006C12.9238 7.20006 14.0002 8.27647 14.0002 9.60008C14.0002 10.9237 12.9238 12.0001 11.6002 12.0001C10.2766 12.0001 9.20017 10.9237 9.20017 9.60008C9.20017 8.27647 10.2766 7.20006 11.6002 7.20006Z" fill="black"/>
<path d="M10.9042 23.777C11.1073 23.922 11.3506 24 11.6002 24C11.8498 24 12.0931 23.922 12.2962 23.777C12.661 23.519 21.2351 17.3281 21.2003 9.60008C21.2003 4.30683 16.8934 0 11.6002 0C6.30694 0 2.00011 4.30683 2.00011 9.59408C1.96531 17.3281 10.5394 23.519 10.9042 23.777ZM11.6002 2.40002C15.571 2.40002 18.8002 5.62925 18.8002 9.60608C18.8254 14.9317 13.5346 19.7138 11.6002 21.2822C9.66697 19.7126 4.37492 14.9293 4.40013 9.60008C4.40013 5.62924 7.62935 2.40002 11.6002 2.40002Z" fill="black"/>
</svg>
