<svg width="24" height="24" viewBox="0 0 24 24" fill="none" xmlns="http://www.w3.org/2000/svg">
<path d="M1.00008 9.99883C0.734845 9.99883 0.48047 9.89347 0.292918 9.70592C0.105366 9.51836 0 9.26399 0 8.99875V1.00008C0 0.734845 0.105366 0.48047 0.292918 0.292918C0.48047 0.105366 0.734845 0 1.00008 0H9.00075C9.26599 0 9.52036 0.105366 9.70792 0.292918C9.89547 0.48047 10.0008 0.734845 10.0008 1.00008V8.99875C10.0008 9.26399 9.89547 9.51836 9.70792 9.70592C9.52036 9.89347 9.26599 9.99883 9.00075 9.99883H1.00008ZM15.0013 9.99883C14.736 9.99883 14.4816 9.89347 14.2941 9.70592C14.1065 9.51836 14.0012 9.26399 14.0012 8.99875V1.00008C14.0012 0.734845 14.1065 0.48047 14.2941 0.292918C14.4816 0.105366 14.736 0 15.0013 0H22.9999C23.2652 0 23.5195 0.105366 23.7071 0.292918C23.8946 0.48047 24 0.734845 24 1.00008V8.99875C24 9.26399 23.8946 9.51836 23.7071 9.70592C23.5195 9.89347 23.2652 9.99883 22.9999 9.99883H15.0013ZM1.00008 24C0.734845 24 0.48047 23.8946 0.292918 23.7071C0.105366 23.5195 0 23.2652 0 22.9999V14.9992C0 14.734 0.105366 14.4796 0.292918 14.2921C0.48047 14.1045 0.734845 13.9992 1.00008 13.9992H9.00075C9.26599 13.9992 9.52036 14.1045 9.70792 14.2921C9.89547 14.4796 10.0008 14.734 10.0008 14.9992V22.9999C10.0008 23.2652 9.89547 23.5195 9.70792 23.7071C9.52036 23.8946 9.26599 24 9.00075 24H1.00008ZM15.0013 24C14.736 24 14.4816 23.8946 14.2941 23.7071C14.1065 23.5195 14.0012 23.2652 14.0012 22.9999V14.9992C14.0012 14.734 14.1065 14.4796 14.2941 14.2921C14.4816 14.1045 14.736 13.9992 15.0013 13.9992H22.9999C23.2652 13.9992 23.5195 14.1045 23.7071 14.2921C23.8946 14.4796 24 14.734 24 14.9992V22.9999C24 23.2652 23.8946 23.5195 23.7071 23.7071C23.5195 23.8946 23.2652 24 22.9999 24H15.0013Z" fill="black"/>
</svg>
