<svg width="24" height="24" viewBox="0 0 24 24" fill="none" xmlns="http://www.w3.org/2000/svg">
<path d="M4.42105 10.8L11.3684 0L18.3158 10.8H4.42105ZM18.3158 24C16.7368 24 15.3945 23.4752 14.2888 22.4256C13.184 21.3752 12.6316 20.1 12.6316 18.6C12.6316 17.1 13.184 15.8248 14.2888 14.7744C15.3945 13.7248 16.7368 13.2 18.3158 13.2C19.8947 13.2 21.2371 13.7248 22.3427 14.7744C23.4476 15.8248 24 17.1 24 18.6C24 20.1 23.4476 21.3752 22.3427 22.4256C21.2371 23.4752 19.8947 24 18.3158 24ZM0 23.4V13.8H10.1053V23.4H0ZM18.3158 21.6C19.2 21.6 19.9474 21.31 20.5579 20.73C21.1684 20.15 21.4737 19.44 21.4737 18.6C21.4737 17.76 21.1684 17.05 20.5579 16.47C19.9474 15.89 19.2 15.6 18.3158 15.6C17.4316 15.6 16.6842 15.89 16.0737 16.47C15.4632 17.05 15.1579 17.76 15.1579 18.6C15.1579 19.44 15.4632 20.15 16.0737 20.73C16.6842 21.31 17.4316 21.6 18.3158 21.6ZM2.52632 21H7.57895V16.2H2.52632V21ZM8.90526 8.4H13.8316L11.3684 4.62L8.90526 8.4Z" fill="black"/>
</svg>
