<svg width="24" height="24" viewBox="0 0 24 24" fill="none" xmlns="http://www.w3.org/2000/svg">
<path d="M21.4737 0H8.84194C7.44866 0 6.31559 1.0764 6.31559 2.4V9.1032L0.36984 14.7516C0.193237 14.9194 0.0729748 15.1332 0.0242573 15.366C-0.0244602 15.5987 0.000554471 15.8399 0.0961388 16.0592C0.191723 16.2784 0.353585 16.4658 0.561263 16.5977C0.768941 16.7295 1.01311 16.7999 1.2629 16.8V22.8C1.2629 23.1183 1.39599 23.4235 1.63288 23.6485C1.86977 23.8736 2.19106 24 2.52608 24H22.7368C23.0718 24 23.3931 23.8736 23.63 23.6485C23.8669 23.4235 24 23.1183 24 22.8V2.4C24 1.0764 22.8669 0 21.4737 0ZM11.3683 21.6H3.78925V14.8968L7.57876 11.2968L11.3683 14.8968V21.6ZM21.4737 21.6H13.8946V16.8C14.1447 16.8005 14.3893 16.7305 14.5973 16.5987C14.8054 16.4669 14.9676 16.2794 15.0633 16.0599C15.159 15.8405 15.1839 15.5989 15.1348 15.366C15.0857 15.133 14.9649 14.9192 14.7877 14.7516L8.84194 9.1032V2.4H21.4737V21.6Z" fill="black"/>
<path d="M11.3682 4.8H13.8946V7.2H11.3682V4.8ZM16.4209 4.8H18.9473V7.2H16.4209V4.8ZM16.4209 9.6372H18.9473V12H16.4209V9.6372ZM16.4209 14.4H18.9473V16.8H16.4209V14.4ZM6.31555 15.6H8.8419V18H6.31555V15.6Z" fill="black"/>
</svg>
